<svg width="20" height="20" viewBox="0 0 20 20" fill="none" xmlns="http://www.w3.org/2000/svg">
<g clip-path="url(#clip0_3051_400)">
<path d="M17.5835 9.16675C17.5835 8.92368 17.4868 8.69021 17.3149 8.51831C17.1431 8.34643 16.9096 8.24978 16.6665 8.24976H15.7495V17.5828H16.6665C16.9096 17.5827 17.1431 17.487 17.3149 17.3152C17.4868 17.1433 17.5835 16.9098 17.5835 16.6667V9.16675ZM11.6665 14.2498C12.0807 14.2498 12.4165 14.5856 12.4165 14.9998C12.4165 15.4139 12.0807 15.7497 11.6665 15.7498H8.3335C7.91928 15.7498 7.5835 15.414 7.5835 14.9998C7.5835 14.5855 7.91928 14.2498 8.3335 14.2498H11.6665ZM11.6665 10.9167C12.0807 10.9168 12.4165 11.2526 12.4165 11.6667C12.4164 12.0808 12.0806 12.4167 11.6665 12.4167H8.3335C7.91936 12.4167 7.58363 12.0808 7.5835 11.6667C7.5835 11.2525 7.91928 10.9167 8.3335 10.9167H11.6665ZM11.6665 7.58374C12.0807 7.58378 12.4165 7.91955 12.4165 8.33374C12.4162 8.7477 12.0805 9.0837 11.6665 9.08374H8.3335C7.91945 9.08374 7.58376 8.74773 7.5835 8.33374C7.5835 7.91953 7.91928 7.58374 8.3335 7.58374H11.6665ZM11.6665 4.24976C12.0806 4.2498 12.4164 4.58568 12.4165 4.99976C12.4165 5.41394 12.0807 5.74972 11.6665 5.74976H8.3335C7.91928 5.74976 7.5835 5.41397 7.5835 4.99976C7.58363 4.58565 7.91936 4.24976 8.3335 4.24976H11.6665ZM2.4165 16.6667C2.41654 16.9098 2.51319 17.1433 2.68506 17.3152C2.85694 17.4869 3.0905 17.5828 3.3335 17.5828H4.24951V10.7498H3.3335C3.09044 10.7498 2.85695 10.8465 2.68506 11.0183C2.51315 11.1902 2.4165 11.4236 2.4165 11.6667V16.6667ZM14.2495 3.33374C14.2495 3.09063 14.1529 2.85721 13.981 2.6853C13.8092 2.51357 13.5764 2.41685 13.3335 2.41675H6.6665C6.4234 2.41675 6.18997 2.5134 6.01807 2.6853C5.84628 2.85719 5.74951 3.09072 5.74951 3.33374V17.5828H14.2495V3.33374ZM15.7495 6.74976H16.6665C17.3074 6.74978 17.9223 7.00458 18.3755 7.45776C18.8286 7.91096 19.0835 8.52586 19.0835 9.16675V16.6667C19.0835 17.3076 18.8287 17.9226 18.3755 18.3757C17.9223 18.8289 17.3074 19.0827 16.6665 19.0828H3.3335C2.69268 19.0828 2.0777 18.8288 1.62451 18.3757C1.17134 17.9226 0.916543 17.3076 0.916504 16.6667V11.6667C0.916504 11.0258 1.1713 10.411 1.62451 9.95776C2.07771 9.50463 2.69262 9.24976 3.3335 9.24976H4.24951V3.33374C4.24951 2.69289 4.50442 2.07795 4.95752 1.62476C5.41072 1.17155 6.02558 0.916754 6.6665 0.916748H13.3335C13.9742 0.916845 14.5884 1.17172 15.0415 1.62476C15.4947 2.07797 15.7495 2.6928 15.7495 3.33374V6.74976Z" fill="currentColor"/>
</g>
<defs>
<clipPath id="clip0_3051_400">
<rect width="19.9998" height="19.9998" fill="white"/>
</clipPath>
</defs>
</svg>
