<svg width="20" height="20" viewBox="0 0 20 20" fill="none" xmlns="http://www.w3.org/2000/svg">
<g clip-path="url(#clip0_2424_5865)">
<path d="M13.333 0.916992C13.9739 0.916992 14.5888 1.17179 15.042 1.625C15.4951 2.07819 15.75 2.69313 15.75 3.33398V6.75H16.667C17.3077 6.75012 17.9219 7.005 18.375 7.45801C18.8282 7.91121 19.083 8.52608 19.083 9.16699V16.667C19.0829 17.3077 18.8281 17.9219 18.375 18.375C17.9219 18.8281 17.3077 19.0829 16.667 19.083H3.33398C2.69313 19.083 2.07819 18.8281 1.625 18.375C1.17196 17.9219 0.917096 17.3077 0.916992 16.667V11.667C0.916992 11.0261 1.17179 10.4112 1.625 9.95801C2.07819 9.50491 2.69314 9.25 3.33398 9.25H4.25V3.33398C4.25 2.69311 4.50487 2.0782 4.95801 1.625C5.41122 1.17179 6.02606 0.916992 6.66699 0.916992H13.333ZM3.33398 10.75C3.09096 10.75 2.85743 10.8468 2.68555 11.0186C2.51364 11.1905 2.41699 11.4239 2.41699 11.667V16.667C2.4171 16.9099 2.51381 17.1427 2.68555 17.3145C2.85743 17.4862 3.09096 17.583 3.33398 17.583H4.25V10.75H3.33398ZM15.75 17.583H16.667C16.9099 17.5829 17.1427 17.4862 17.3145 17.3145C17.4862 17.1427 17.5829 16.9099 17.583 16.667V9.16699C17.583 8.92391 17.4863 8.69045 17.3145 8.51855C17.1427 8.34685 16.9099 8.25012 16.667 8.25H15.75V17.583ZM8.33301 14.25C7.91891 14.2501 7.58301 14.5859 7.58301 15C7.58314 15.414 7.91899 15.7499 8.33301 15.75H11.666C12.0801 15.75 12.4159 15.4141 12.416 15C12.416 14.5858 12.0802 14.25 11.666 14.25H8.33301ZM8.33301 10.917C7.91891 10.9171 7.58301 11.2529 7.58301 11.667C7.58327 12.0809 7.91907 12.4169 8.33301 12.417H11.666C12.0801 12.417 12.4158 12.081 12.416 11.667C12.416 11.2528 12.0802 10.917 11.666 10.917H8.33301ZM8.33301 7.58301C7.91899 7.58314 7.58314 7.91899 7.58301 8.33301C7.58301 8.74714 7.91891 9.08288 8.33301 9.08301H11.666C12.0802 9.08301 12.416 8.74722 12.416 8.33301C12.4159 7.91891 12.0801 7.58301 11.666 7.58301H8.33301ZM8.33301 4.25C7.91891 4.25013 7.58301 4.58587 7.58301 5C7.58301 5.41413 7.91891 5.74987 8.33301 5.75H11.666C12.0802 5.75 12.416 5.41421 12.416 5C12.416 4.58579 12.0802 4.25 11.666 4.25H8.33301Z" fill="currentColor"/>
</g>
<defs>
<clipPath id="clip0_2424_5865">
<rect width="19.9998" height="19.9998" fill="white"/>
</clipPath>
</defs>
</svg>
