<svg width="20" height="20" viewBox="0 0 20 20" fill="none" xmlns="http://www.w3.org/2000/svg">
<g clip-path="url(#clip0_3051_393)">
<path d="M13.333 0.416992C13.7472 0.416992 14.083 0.752779 14.083 1.16699V2.08301H15.833C17.1675 2.08314 18.2499 3.16551 18.25 4.5V16.166C18.25 17.5006 17.1676 18.5829 15.833 18.583H4.16699C2.83231 18.583 1.75 17.5007 1.75 16.166V4.5C1.75013 3.16543 2.83239 2.08301 4.16699 2.08301H5.91602V1.16699C5.91602 0.752901 6.25197 0.41719 6.66602 0.416992C7.08023 0.416992 7.41602 0.752779 7.41602 1.16699V2.08301H12.583V1.16699C12.583 0.752779 12.9188 0.416992 13.333 0.416992ZM4.16699 3.58301C3.66082 3.58301 3.25013 3.99386 3.25 4.5V16.166C3.25 16.6723 3.66074 17.083 4.16699 17.083H5.08301V16.167C5.08301 15.5261 5.33788 14.9112 5.79102 14.458C6.24423 14.0048 6.85906 13.75 7.5 13.75H12.5C13.1407 13.7501 13.7549 14.005 14.208 14.458C14.6611 14.9112 14.916 15.5261 14.916 16.167V17.083H15.833C16.3391 17.0829 16.75 16.6722 16.75 16.166V4.5C16.7499 3.99394 16.3391 3.58314 15.833 3.58301H13.3525C13.346 3.58317 13.3395 3.58398 13.333 3.58398C13.3265 3.58398 13.32 3.58317 13.3135 3.58301H6.68555C6.67917 3.58317 6.67243 3.58398 6.66602 3.58398C6.65948 3.58398 6.65298 3.58318 6.64648 3.58301H4.16699ZM7.5 15.25C7.25689 15.25 7.02347 15.3466 6.85156 15.5186C6.67973 15.6904 6.58301 15.9239 6.58301 16.167V17.083H13.416V16.167C13.416 15.9239 13.3193 15.6904 13.1475 15.5186C12.9757 15.3468 12.7429 15.2501 12.5 15.25H7.5ZM10 5.41699C11.7947 5.4172 13.25 6.87221 13.25 8.66699C13.2497 10.4615 11.7946 11.9168 10 11.917C8.20526 11.917 6.75028 10.4617 6.75 8.66699C6.75 6.87208 8.20509 5.41699 10 5.41699ZM10 6.91699C9.03352 6.91699 8.25 7.70051 8.25 8.66699C8.25028 9.63324 9.03369 10.417 10 10.417C10.9661 10.4168 11.7497 9.63311 11.75 8.66699C11.75 7.70064 10.9663 6.9172 10 6.91699Z" fill="currentColor"/>
</g>
<defs>
<clipPath id="clip0_3051_393">
<rect width="19.9998" height="19.9998" fill="white"/>
</clipPath>
</defs>
</svg>
