<svg width="20" height="20" viewBox="0 0 20 20" fill="none" xmlns="http://www.w3.org/2000/svg">
<path d="M7.5 12.584C8.37435 12.584 9.08283 13.2927 9.08301 14.167V16.667C9.08274 17.5412 8.3743 18.251 7.5 18.251H3.33301C2.45886 18.2508 1.75026 17.5411 1.75 16.667V14.167C1.75018 13.2928 2.45881 12.5842 3.33301 12.584H7.5ZM16.667 9.25C17.5412 9.2502 18.2498 9.95883 18.25 10.833V16.667C18.2499 17.5412 17.5412 18.2498 16.667 18.25H12.5C11.6258 18.2498 10.9171 17.5412 10.917 16.667V10.833C10.9172 9.95882 11.6258 9.25018 12.5 9.25H16.667ZM7.5 1.75C8.37435 1.75 9.08283 2.45871 9.08301 3.33301V9.16699C9.08288 10.0413 8.37438 10.75 7.5 10.75H3.33301C2.45878 10.7498 1.75012 10.0412 1.75 9.16699V3.33301C1.75018 2.45882 2.45881 1.75018 3.33301 1.75H7.5ZM16.667 1.75C17.5412 1.7502 18.2498 2.45883 18.25 3.33301V5.83301C18.25 6.70734 17.5413 7.41679 16.667 7.41699H12.5C11.6257 7.41681 10.917 6.70735 10.917 5.83301V3.33301C10.9172 2.45882 11.6258 1.75018 12.5 1.75H16.667Z" fill="currentColor"/>
</svg>
