<svg width="20" height="20" viewBox="0 0 20 20" fill="none" xmlns="http://www.w3.org/2000/svg">
<path d="M7.5 12.584C8.37435 12.584 9.08283 13.2927 9.08301 14.167V16.667C9.08274 17.5412 8.3743 18.251 7.5 18.251H3.33301C2.45886 18.2508 1.75026 17.5411 1.75 16.667V14.167C1.75018 13.2928 2.45881 12.5842 3.33301 12.584H7.5ZM16.667 9.25C17.5412 9.2502 18.2498 9.95883 18.25 10.833V16.667C18.2499 17.5412 17.5412 18.2498 16.667 18.25H12.5C11.6258 18.2498 10.9171 17.5412 10.917 16.667V10.833C10.9172 9.95882 11.6258 9.25018 12.5 9.25H16.667ZM3.33301 14.084C3.28725 14.0842 3.25018 14.1212 3.25 14.167V16.667C3.25026 16.7127 3.2873 16.7508 3.33301 16.751H7.5C7.54586 16.751 7.58275 16.7128 7.58301 16.667V14.167C7.58283 14.1211 7.54591 14.084 7.5 14.084H3.33301ZM12.5 10.75C12.4542 10.7502 12.4172 10.7872 12.417 10.833V16.667C12.4171 16.7128 12.4542 16.7498 12.5 16.75H16.667C16.7128 16.7498 16.7499 16.7128 16.75 16.667V10.833C16.7498 10.7872 16.7127 10.7502 16.667 10.75H12.5ZM7.5 1.75C8.37435 1.75 9.08283 2.45871 9.08301 3.33301V9.16699C9.08288 10.0413 8.37438 10.75 7.5 10.75H3.33301C2.45878 10.7498 1.75012 10.0412 1.75 9.16699V3.33301C1.75018 2.45882 2.45881 1.75018 3.33301 1.75H7.5ZM3.33301 3.25C3.28725 3.25018 3.25018 3.28724 3.25 3.33301V9.16699C3.25012 9.21281 3.28722 9.24982 3.33301 9.25H7.5C7.54594 9.25 7.58288 9.21292 7.58301 9.16699V3.33301C7.58283 3.28713 7.54591 3.25 7.5 3.25H3.33301ZM16.667 1.75C17.5412 1.7502 18.2498 2.45883 18.25 3.33301V5.83301C18.25 6.70734 17.5413 7.41679 16.667 7.41699H12.5C11.6257 7.41681 10.917 6.70735 10.917 5.83301V3.33301C10.9172 2.45882 11.6258 1.75018 12.5 1.75H16.667ZM12.5 3.25C12.4542 3.25018 12.4172 3.28724 12.417 3.33301V5.83301C12.417 5.87894 12.4541 5.91682 12.5 5.91699H16.667C16.7128 5.91679 16.75 5.87892 16.75 5.83301V3.33301C16.7498 3.28725 16.7127 3.2502 16.667 3.25H12.5Z" fill="currentColor"/>
</svg>
