<svg width="20" height="20" viewBox="0 0 20 20" fill="none" xmlns="http://www.w3.org/2000/svg">
<path d="M6.25 18.25H4.16699C2.83231 18.25 1.75 17.1677 1.75 15.833V13.75H6.25V18.25ZM12.25 18.25H7.75V13.75H12.25V18.25ZM18.25 15.833C18.25 17.1677 17.1677 18.25 15.833 18.25H13.75V13.75H18.25V15.833ZM6.25 12.25H1.75V7.75H6.25V12.25ZM12.25 12.25H7.75V7.75H12.25V12.25ZM18.25 12.25H13.75V7.75H18.25V12.25ZM6.25 6.25H1.75V4.16699C1.75 2.83231 2.83231 1.75 4.16699 1.75H6.25V6.25ZM12.25 6.25H7.75V1.75H12.25V6.25ZM15.833 1.75C17.1677 1.75 18.25 2.83231 18.25 4.16699V6.25H13.75V1.75H15.833Z" fill="currentColor"/>
</svg>
