<svg width="20" height="20" viewBox="0 0 20 20" fill="none" xmlns="http://www.w3.org/2000/svg">
<path d="M16.7485 13.2495H13.2495V16.7485H15.8325C16.3382 16.7483 16.7483 16.3382 16.7485 15.8325V13.2495ZM8.25049 16.7485H11.7495V13.2495H8.25049V16.7485ZM13.2495 11.7495H16.7485V8.25049H13.2495V11.7495ZM8.25049 11.7495H11.7495V8.25049H8.25049V11.7495ZM3.25146 11.7495H6.75049V8.25049H3.25146V11.7495ZM8.25049 6.75049H11.7495V3.25146H8.25049V6.75049ZM3.25146 15.8325C3.25171 16.3383 3.6617 16.7484 4.16748 16.7485H6.75049V13.2495H3.25146V15.8325ZM16.7485 4.16748C16.7484 3.6617 16.3383 3.25171 15.8325 3.25146H13.2495V6.75049H16.7485V4.16748ZM3.25146 6.75049H6.75049V3.25146H4.16748C3.66165 3.25163 3.25163 3.66165 3.25146 4.16748V6.75049ZM18.2485 15.8325C18.2483 17.1667 17.1667 18.2483 15.8325 18.2485H4.16748C2.83328 18.2484 1.75171 17.1667 1.75146 15.8325V4.16748C1.75163 2.83323 2.83323 1.75163 4.16748 1.75146H15.8325C17.1667 1.75171 18.2484 2.83328 18.2485 4.16748V15.8325Z" fill="currentColor"/>
</svg>
