<svg width="24" height="24" viewBox="0 0 24 24" fill="none" xmlns="http://www.w3.org/2000/svg">
	<path d="M12 22C14.9639 22 17.3666 17.5228 17.3666 12C17.3666 6.47715 14.9639 2 12 2C9.03604 2 6.6333 6.47715 6.6333 12C6.6333 17.5228 9.03604 22 12 22Z" stroke-width="1.77778" stroke-miterlimit="10" stroke-linecap="round" stroke-linejoin="round" />
	<path d="M2.83337 16H21.1667M2.83337 8H21.1667M12 2V22" stroke-width="1.77778" stroke-miterlimit="10" stroke-linecap="round" stroke-linejoin="round" />
	<path d="M12 22C17.5228 22 22 17.5228 22 12C22 6.47715 17.5228 2 12 2C6.47715 2 2 6.47715 2 12C2 17.5228 6.47715 22 12 22Z" stroke-width="1.77778" stroke-miterlimit="10" stroke-linecap="round" stroke-linejoin="round" />
</svg>
