<svg width="20" height="20" viewBox="0 0 20 20" fill="none" xmlns="http://www.w3.org/2000/svg">
<g clip-path="url(#clip0_3158_318)">
<path d="M10.4668 0.928711C15.2662 1.1718 19.0829 5.14021 19.083 10C19.0829 15.0163 15.0163 19.0829 10 19.083C4.98365 19.0829 0.917124 15.0163 0.916992 10C0.917123 4.98365 4.98365 0.917123 10 0.916992L10.4668 0.928711ZM2.4541 10.75C2.77317 13.9985 5.14203 16.6425 8.25 17.377C6.88339 15.4318 6.0812 13.138 5.94141 10.75H2.4541ZM14.0586 10.75C13.9187 13.1385 13.1143 15.4316 11.7471 17.377C14.8562 16.6434 17.2268 13.9994 17.5459 10.75H14.0586ZM7.44336 10.75C7.60058 13.1138 8.49563 15.3684 10 17.1973C11.5045 15.3683 12.3983 13.1138 12.5557 10.75H7.44336ZM8.25 2.62109C5.14179 3.35546 2.77308 6.00126 2.4541 9.25H5.94141C6.08117 6.86141 6.88288 4.56657 8.25 2.62109ZM10 2.80176C8.49516 4.63086 7.60144 6.88567 7.44434 9.25H12.5557C12.3984 6.88576 11.5048 4.63084 10 2.80176ZM11.748 2.62109C13.1156 4.56668 13.9187 6.8612 14.0586 9.25H17.5459C17.2269 6.00068 14.857 3.35493 11.748 2.62109Z" fill="#495057"/>
</g>
<defs>
<clipPath id="clip0_3158_318">
<rect width="20" height="20" fill="white"/>
</clipPath>
</defs>
</svg>
