<svg width="20" height="20" viewBox="0 0 20 20" fill="none" xmlns="http://www.w3.org/2000/svg">
<path d="M14.875 1.25C16.1755 1.25 17.2498 2.291 17.25 3.59961V16.4004C17.2498 17.709 16.1755 18.75 14.875 18.75H5.125C3.82446 18.75 2.75021 17.709 2.75 16.4004V3.59961C2.75021 2.291 3.82446 1.25 5.125 1.25H14.875ZM5.125 2.75C4.63089 2.75 4.25022 3.14126 4.25 3.59961V16.4004C4.25022 16.8587 4.63089 17.25 5.125 17.25H14.875C15.3691 17.25 15.7498 16.8587 15.75 16.4004V3.59961C15.7498 3.14126 15.3691 2.75 14.875 2.75H5.125ZM10 4.85059C11.9456 4.85059 13.4999 6.45267 13.5 8.40039C13.4999 9.46849 13.0312 10.432 12.2881 11.085L12.708 14.3037C12.7451 14.5897 12.6149 14.8721 12.373 15.0293C12.131 15.1863 11.8195 15.1913 11.5732 15.041L10 14.0791L8.42676 15.041C8.18047 15.1913 7.86896 15.1864 7.62695 15.0293C7.38514 14.8721 7.25492 14.5897 7.29199 14.3037L7.71191 11.085C6.9688 10.432 6.50014 9.46849 6.5 8.40039C6.5001 6.45267 8.05439 4.85059 10 4.85059ZM10.874 11.8389C10.595 11.9115 10.3022 11.9502 10 11.9502C9.69777 11.9502 9.40497 11.9115 9.12598 11.8389L8.98145 12.9434L9.60938 12.5605L9.70215 12.5127C9.92386 12.4167 10.1807 12.4324 10.3906 12.5605L11.0176 12.9434L10.874 11.8389ZM10 6.35059C8.90818 6.35059 8.0001 7.2555 8 8.40039C8.00026 9.54514 8.90827 10.4502 10 10.4502C11.0917 10.4502 11.9997 9.54514 12 8.40039C11.9999 7.2555 11.0918 6.35059 10 6.35059Z" fill="currentColor"/>
</svg>
