<svg width="20" height="20" viewBox="0 0 20 20" fill="none" xmlns="http://www.w3.org/2000/svg">
<g clip-path="url(#clip0_3058_484)">
<path d="M14.75 6.90894C14.75 4.34753 12.6352 2.24976 10 2.24976C7.36481 2.24976 5.25 4.34753 5.25 6.90894C5.25005 9.4703 7.36484 11.5681 10 11.5681C10.9457 11.5681 11.8236 11.2966 12.5615 10.8318C12.5805 10.8191 12.599 10.8057 12.6191 10.7947C13.9051 9.95864 14.75 8.52701 14.75 6.90894ZM12.376 12.6052C11.6426 12.9027 10.8404 13.0681 10 13.0681C9.15963 13.0681 8.35742 12.9027 7.62402 12.6052L7.02051 17.0681L9.61914 15.5359L9.70996 15.49C9.92646 15.3992 10.1753 15.4146 10.3809 15.5359L12.9785 17.0681L12.376 12.6052ZM16.25 6.90894C16.25 8.91386 15.2795 10.6872 13.7822 11.8103L14.6719 18.3992C14.7103 18.6838 14.5829 18.9659 14.3438 19.1248C14.1044 19.2836 13.7952 19.2912 13.5479 19.1453L10 17.0525L6.45215 19.1453C6.20474 19.2912 5.89558 19.2836 5.65625 19.1248C5.41703 18.9658 5.28969 18.6838 5.32812 18.3992L6.21777 11.8103C4.72053 10.6872 3.75003 8.91386 3.75 6.90894C3.75 3.49563 6.56005 0.749756 10 0.749756C13.4399 0.749756 16.25 3.49563 16.25 6.90894Z" fill="currentColor"/>
</g>
<defs>
<clipPath id="clip0_3058_484">
<rect width="19.9998" height="19.9998" fill="white"/>
</clipPath>
</defs>
</svg>
