<svg width="20" height="20" viewBox="0 0 20 20" fill="none" xmlns="http://www.w3.org/2000/svg">
<path d="M14.875 1.25C16.1754 1.25013 17.2498 2.29109 17.25 3.59961V16.4004C17.2498 17.7089 16.1754 18.7499 14.875 18.75H5.125C3.82446 18.75 2.75021 17.709 2.75 16.4004V3.59961C2.75021 2.291 3.82446 1.25 5.125 1.25H14.875ZM10 4.85059C8.05439 4.85059 6.5001 6.45267 6.5 8.40039C6.50014 9.46849 6.9688 10.432 7.71191 11.085L7.29199 14.3037C7.25491 14.5897 7.38513 14.8721 7.62695 15.0293C7.869 15.1863 8.1805 15.1914 8.42676 15.041L10 14.0791L11.5732 15.041C11.8195 15.1912 12.1311 15.1864 12.373 15.0293C12.6148 14.8721 12.7451 14.5897 12.708 14.3037L12.2881 11.085C13.0312 10.432 13.4999 9.46849 13.5 8.40039C13.4999 6.45275 11.9455 4.85072 10 4.85059ZM11.0176 12.9434L10.3906 12.5605C10.1807 12.4325 9.92385 12.4167 9.70215 12.5127L9.60938 12.5605L8.98145 12.9434L9.12598 11.8389C9.4049 11.9114 9.69785 11.9502 10 11.9502C10.3022 11.9502 10.5951 11.9115 10.874 11.8389L11.0176 12.9434ZM10 6.35059C11.0917 6.35072 11.9999 7.25559 12 8.40039C11.9997 9.54506 11.0916 10.4501 10 10.4502C8.90827 10.4502 8.00026 9.54514 8 8.40039C8.0001 7.2555 8.90818 6.35059 10 6.35059Z" fill="currentColor"/>
</svg>
