<svg width="20" height="20" viewBox="0 0 20 20" fill="none" xmlns="http://www.w3.org/2000/svg">
<g clip-path="url(#clip0_3051_374)">
<path d="M10 11.75C11.0828 11.7501 12.122 12.1806 12.8877 12.9463C13.6531 13.7119 14.0839 14.7504 14.084 15.833V17.5C14.0838 17.9138 13.7477 18.2496 13.334 18.25C12.9199 18.25 12.5841 17.9141 12.584 17.5V15.833C12.5839 15.1482 12.3112 14.4912 11.8271 14.0068C11.3428 13.5225 10.685 13.2501 10 13.25H5C4.315 13.2501 3.65822 13.5225 3.17383 14.0068C2.68943 14.4912 2.41707 15.148 2.41699 15.833V17.5C2.41683 17.914 2.08094 18.2498 1.66699 18.25C1.25288 18.25 0.917151 17.9141 0.916992 17.5V15.833C0.91707 14.7502 1.34758 13.712 2.11328 12.9463C2.87897 12.1806 3.91718 11.7501 5 11.75H10ZM15.1064 12.4209C15.21 12.0199 15.6195 11.7784 16.0205 11.8818C16.8964 12.108 17.6723 12.6191 18.2266 13.334C18.7808 14.049 19.0823 14.9283 19.083 15.833V17.5C19.0829 17.9141 18.7471 18.25 18.333 18.25C17.9189 18.2499 17.5831 17.9141 17.583 17.5V15.834L17.5742 15.6201C17.5327 15.1241 17.3478 14.6487 17.041 14.2529C16.6904 13.8007 16.1995 13.478 15.6455 13.335C15.2446 13.2314 15.0031 12.8218 15.1064 12.4209ZM7.5 1.75C9.75488 1.7502 11.5838 3.57812 11.584 5.83301C11.584 8.08803 9.75498 9.91679 7.5 9.91699C5.24499 9.91683 3.41699 8.08805 3.41699 5.83301C3.41715 3.5781 5.24509 1.75016 7.5 1.75ZM12.6064 2.42285C12.7091 2.02181 13.1175 1.77954 13.5186 1.88184C14.3968 2.10671 15.1755 2.61785 15.7314 3.33398C16.2874 4.0502 16.5898 4.93122 16.5898 5.83789C16.5898 6.74438 16.2873 7.62472 15.7314 8.34082C15.1755 9.05698 14.3968 9.56809 13.5186 9.79297C13.1176 9.89528 12.7092 9.65386 12.6064 9.25293C12.5038 8.85176 12.7463 8.44268 13.1475 8.33984C13.7028 8.19754 14.1953 7.87468 14.5469 7.42188C14.8985 6.96885 15.0898 6.41137 15.0898 5.83789C15.0898 5.26439 14.8985 4.70698 14.5469 4.25391C14.1953 3.80097 13.7029 3.47728 13.1475 3.33496C12.7465 3.23217 12.5041 2.82388 12.6064 2.42285ZM7.5 3.25C6.07351 3.25016 4.91715 4.40652 4.91699 5.83301C4.91699 7.25963 6.07342 8.41683 7.5 8.41699C8.92655 8.41679 10.084 7.2596 10.084 5.83301C10.0838 4.40655 8.92645 3.2502 7.5 3.25Z" fill="currentColor"/>
</g>
<defs>
<clipPath id="clip0_3051_374">
<rect width="19.9998" height="19.9998" fill="white"/>
</clipPath>
</defs>
</svg>
