<svg width="20" height="20" viewBox="0 0 20 20" fill="none" xmlns="http://www.w3.org/2000/svg">
<path d="M14.6813 18.399C14.7196 18.6837 14.5922 18.9662 14.3529 19.1252C14.1134 19.2841 13.8039 19.2916 13.5563 19.1457L10.0054 17.0511L6.45447 19.1457C6.20695 19.2917 5.89739 19.284 5.65789 19.1252C5.41852 18.9662 5.2911 18.6838 5.32948 18.399L5.99705 13.4475C7.16898 14.1468 8.54248 14.548 10.0054 14.548C11.468 14.5479 12.8404 14.1453 14.0118 13.4465L14.6813 18.399ZM10.0054 0.75C13.4579 0.75026 16.2578 3.50333 16.2578 6.89885L16.2442 7.30154C16.1125 9.30192 15.0077 11.0421 13.3911 12.0683L13.2064 12.1807C12.2702 12.7306 11.175 13.0466 10.0054 13.0467C6.66057 13.0466 3.92903 10.4632 3.76173 7.21455L3.75293 6.89885C3.75293 3.50326 6.55276 0.75015 10.0054 0.75Z" fill="currentColor"/>
</svg>
