<svg width="20" height="20" viewBox="0 0 20 20" fill="none" xmlns="http://www.w3.org/2000/svg">
<path d="M12.833 14.6866C13.2472 14.6866 13.583 15.018 13.583 15.4266C13.583 15.8353 13.2472 16.1666 12.833 16.1666H1.5C1.08579 16.1666 0.75 15.8353 0.75 15.4266C0.75 15.018 1.08579 14.6866 1.5 14.6866H12.833ZM18.5 9.25998C18.9142 9.25998 19.25 9.59129 19.25 9.99998C19.25 10.4087 18.9142 10.74 18.5 10.74H1.5C1.08579 10.74 0.75 10.4087 0.75 9.99998C0.75 9.59129 1.08579 9.25998 1.5 9.25998H18.5ZM18.5 3.83331C18.9142 3.83331 19.25 4.16462 19.25 4.57331C19.25 4.982 18.9142 5.31331 18.5 5.31331H1.5C1.08579 5.31331 0.75 4.982 0.75 4.57331C0.75 4.16462 1.08579 3.83331 1.5 3.83331H18.5Z" fill="#495057"/>
</svg>
