<?xml version="1.0" encoding="UTF-8"?>
<svg id="Layer_1" data-name="Layer 1" xmlns="http://www.w3.org/2000/svg" xmlns:xlink="http://www.w3.org/1999/xlink" viewBox="0 0 400 400">
  <defs>
    <style>
      .cls-1, .cls-2 {
        fill: none;
      }

      .cls-3 {
        clip-path: url(#clippath);
      }

      .cls-4 {
        fill: #666;
      }

      .cls-5 {
        clip-path: url(#clippath-1);
      }

      .cls-2 {
        stroke: #666;
        stroke-linecap: round;
        stroke-linejoin: round;
        stroke-width: 8px;
      }
    </style>
    <clipPath id="clippath">
      <rect class="cls-1" width="400" height="400"/>
    </clipPath>
    <clipPath id="clippath-1">
      <rect class="cls-1" x="420" width="400" height="400"/>
    </clipPath>
  </defs>
  <g class="cls-3">
    <polygon class="cls-4" points="140.48 22 182.48 -78 142.48 -78 100.48 22 142.48 122 100.48 222 142.48 322 100.48 422 142.48 522 182.48 522 140.48 422 182.48 322 140.48 222 182.48 122 140.48 22"/>
    <polygon class="cls-4" points="60.48 22 102.48 -78 62.48 -78 20.48 22 62.48 122 20.48 222 62.48 322 20.48 422 62.48 522 102.48 522 60.48 422 102.48 322 60.48 222 102.48 122 60.48 22"/>
    <polygon class="cls-4" points="-19.52 22 22.48 -78 -17.52 -78 -59.52 22 -17.52 122 -59.52 222 -17.52 322 -59.52 422 -17.52 522 22.48 522 -19.52 422 22.48 322 -19.52 222 22.48 122 -19.52 22"/>
    <polygon class="cls-4" points="300.48 22 342.48 -78 302.48 -78 260.48 22 302.48 122 260.48 222 302.48 322 260.48 422 302.48 522 342.48 522 300.48 422 342.48 322 300.48 222 342.48 122 300.48 22"/>
    <polygon class="cls-4" points="380.48 22 422.48 -78 382.48 -78 340.48 22 382.48 122 340.48 222 382.48 322 340.48 422 382.48 522 422.48 522 380.48 422 422.48 322 380.48 222 422.48 122 380.48 22"/>
    <polygon class="cls-4" points="220.48 22 262.48 -78 222.48 -78 180.48 22 222.48 122 180.48 222 222.48 322 180.48 422 222.48 522 262.48 522 220.48 422 262.48 322 220.48 222 262.48 122 220.48 22"/>
  </g>
  <g class="cls-5">
    <g>
      <polygon class="cls-2" points="377 322.5 409 338.5 409 298.5 377 282.5 377 322.5"/>
      <polygon class="cls-2" points="409 266.5 377 282.5 409 298.5 441 282.5 409 266.5"/>
    </g>
    <g>
      <polygon class="cls-2" points="409 267.07 377 283.07 377 243.07 409 227.07 409 267.07"/>
      <polygon class="cls-2" points="345 267.07 377 283.07 377 243.07 345 227.07 345 267.07"/>
      <polygon class="cls-2" points="377 211.07 345 227.07 377 243.07 409 227.07 377 211.07"/>
    </g>
    <g>
      <polygon class="cls-2" points="377 433.5 409 449.5 409 409.5 377 393.5 377 433.5"/>
      <polygon class="cls-2" points="409 377.5 377 393.5 409 409.5 441 393.5 409 377.5"/>
    </g>
    <g>
      <polygon class="cls-2" points="409 378.07 377 394.07 377 354.07 409 338.07 409 378.07"/>
      <polygon class="cls-2" points="345 378.07 377 394.07 377 354.07 345 338.07 345 378.07"/>
      <polygon class="cls-2" points="377 322.07 345 338.07 377 354.07 409 338.07 377 322.07"/>
    </g>
    <g>
      <polygon class="cls-2" points="377 99.5 409 115.5 409 75.5 377 59.5 377 99.5"/>
      <polygon class="cls-2" points="409 43.5 377 59.5 409 75.5 441 59.5 409 43.5"/>
    </g>
    <g>
      <polygon class="cls-2" points="409 44.07 377 60.07 377 20.07 409 4.07 409 44.07"/>
      <polygon class="cls-2" points="345 44.07 377 60.07 377 20.07 345 4.07 345 44.07"/>
      <polygon class="cls-2" points="377 -11.93 345 4.07 377 20.07 409 4.07 377 -11.93"/>
    </g>
    <g>
      <polygon class="cls-2" points="377 210.5 409 226.5 409 186.5 377 170.5 377 210.5"/>
      <polygon class="cls-2" points="409 154.5 377 170.5 409 186.5 441 170.5 409 154.5"/>
    </g>
    <g>
      <polygon class="cls-2" points="409 155.07 377 171.07 377 131.07 409 115.07 409 155.07"/>
      <polygon class="cls-2" points="345 155.07 377 171.07 377 131.07 345 115.07 345 155.07"/>
      <polygon class="cls-2" points="377 99.07 345 115.07 377 131.07 409 115.07 377 99.07"/>
    </g>
  </g>
</svg>