<svg width="24" height="24" viewBox="0 0 24 24" fill="none" xmlns="http://www.w3.org/2000/svg">
<path d="M14.6208 14.339L14.0123 13.5454C13.7855 13.7194 13.6439 13.982 13.6234 14.2671C13.6029 14.5522 13.7053 14.8324 13.9048 15.0371L14.6208 14.339ZM9.37909 14.339L10.0951 15.0371C10.2946 14.8325 10.397 14.5522 10.3765 14.2672C10.356 13.9821 10.2144 13.7194 9.98759 13.5455L9.37909 14.339ZM6.09836 16.832L5.69196 15.9183L5.69195 15.9183L6.09836 16.832ZM5.57229 17.0616L5.17566 16.1436L5.17566 16.1436L5.57229 17.0616ZM2 22L1 21.9999C0.999996 22.2652 1.10535 22.5195 1.29289 22.7071C1.48042 22.8946 1.73478 23 2 23V22ZM12 22L12.9988 22.0499C13.0124 21.7764 12.9133 21.5092 12.7245 21.3107C12.5358 21.1123 12.2739 21 12 21V22ZM12 22L11.0012 21.9501C10.9876 22.2236 11.0867 22.4908 11.2755 22.6892C11.4642 22.8877 11.7261 23 12 23V22ZM22 22V23C22.2652 23 22.5196 22.8946 22.7071 22.7071C22.8946 22.5196 23 22.2652 23 22L22 22ZM18.4277 17.0616L18.8243 16.1436L18.8243 16.1436L18.4277 17.0616ZM17.9016 16.832L18.308 15.9183L18.308 15.9183L17.9016 16.832ZM16.4098 7.79686C16.4098 10.3754 15.3751 12.5004 14.0123 13.5454L15.2293 15.1325C17.193 13.6268 18.4098 10.8485 18.4098 7.79686H16.4098ZM11.9999 2C13.6689 2 14.695 2.56096 15.3442 3.44282C16.0341 4.37996 16.4098 5.83014 16.4098 7.79686H18.4098C18.4098 5.6344 18.0068 3.68615 16.9548 2.25716C15.8622 0.772879 14.1834 0 11.9999 0V2ZM7.59008 7.79686C7.59008 5.83014 7.96579 4.37996 8.65566 3.44282C9.30483 2.56096 10.331 2 11.9999 2V0C9.81642 0 8.13764 0.772879 7.045 2.25716C5.99307 3.68615 5.59008 5.6344 5.59008 7.79686H7.59008ZM9.98759 13.5455C8.62475 12.5005 7.59008 10.3754 7.59008 7.79686H5.59008C5.59008 10.8485 6.80691 13.6268 8.7706 15.1326L9.98759 13.5455ZM8.66311 13.6409C7.79361 14.5327 6.68703 15.4757 5.69196 15.9183L6.50476 17.7457C7.8572 17.1441 9.17979 15.9759 10.0951 15.0371L8.66311 13.6409ZM5.69195 15.9183C5.51988 15.9948 5.3491 16.0686 5.17566 16.1436L5.96892 17.9795C6.14089 17.9052 6.32136 17.8273 6.50477 17.7457L5.69195 15.9183ZM5.17566 16.1436C4.23139 16.5516 3.12412 17.0128 2.30793 17.9018C1.44133 18.8456 1.00003 20.14 1 21.9999L3 22C3.00002 20.465 3.35602 19.7174 3.78113 19.2544C4.25664 18.7365 4.9355 18.4261 5.96892 17.9795L5.17566 16.1436ZM2 23H12V21H2V23ZM11.0012 21.95L11.0012 21.9501L12.9988 22.0499L12.9988 22.0499L11.0012 21.95ZM12 23H22V21H12V23ZM23 22C23 20.14 22.5587 18.8457 21.6921 17.9018C20.8759 17.0129 19.7686 16.5516 18.8243 16.1436L18.0311 17.9796C19.0645 18.4261 19.7434 18.7366 20.2189 19.2545C20.644 19.7175 21 20.465 21 22L23 22ZM18.8243 16.1436C18.6509 16.0687 18.4801 15.9949 18.308 15.9183L17.4952 17.7457C17.6786 17.8273 17.8591 17.9053 18.0311 17.9796L18.8243 16.1436ZM18.308 15.9183C17.3129 15.4757 16.2063 14.5326 15.3368 13.6409L13.9048 15.0371C14.8201 15.9758 16.1428 17.1442 17.4952 17.7457L18.308 15.9183Z"/>
</svg>
