<svg width="20" height="20" viewBox="0 0 20 20" fill="none" xmlns="http://www.w3.org/2000/svg">
<g clip-path="url(#clip0_3150_499)">
<path d="M10 0.916992C15.0164 0.917124 19.0838 4.98364 19.084 10C19.0839 15.0164 15.0164 19.0839 10 19.084C4.98364 19.0838 0.917124 15.0164 0.916992 10C0.917168 4.98367 4.98367 0.917168 10 0.916992ZM7.5 14.917C6.62679 14.9171 5.85363 15.3505 5.38574 16.0156C6.66414 16.9977 8.26333 17.5839 10 17.584C11.7366 17.5839 13.3359 16.9977 14.6143 16.0156C14.1463 15.3507 13.3731 14.9171 12.5 14.917H7.5ZM10 2.41699C5.8121 2.41717 2.41717 5.8121 2.41699 10C2.41705 11.9084 3.12338 13.6515 4.28711 14.9844C5.03408 14.0317 6.194 13.4171 7.5 13.417H12.5C13.8056 13.4171 14.9659 14.0312 15.7129 14.9834C16.8765 13.6506 17.5839 11.9083 17.584 10C17.5838 5.81207 14.1879 2.41712 10 2.41699ZM10 3.83398C12.2551 3.83412 14.084 5.66191 14.084 7.91699C14.0839 10.172 12.255 11.9999 10 12C7.74507 11.9998 5.91712 10.1719 5.91699 7.91699C5.91699 5.66194 7.74499 3.83416 10 3.83398ZM10 5.33398C8.57341 5.33416 7.41699 6.49036 7.41699 7.91699C7.41712 9.34351 8.5735 10.4998 10 10.5C11.4265 10.4999 12.5839 9.34353 12.584 7.91699C12.584 6.49034 11.4266 5.33412 10 5.33398Z" fill="none"/>
</g>
<defs>
<clipPath id="clip0_3150_499">
<rect width="20" height="20" fill="white"/>
</clipPath>
</defs>
</svg>
