<svg width="20" height="20" viewBox="0 0 20 20" fill="none" xmlns="http://www.w3.org/2000/svg">
<path d="M16.1689 0.827236C16.4014 0.712904 16.6766 0.726532 16.8965 0.863369C17.1163 1.00027 17.25 1.24109 17.25 1.50009V18.5001C17.25 18.7591 17.1163 18.9999 16.8965 19.1368C16.6765 19.2737 16.4014 19.2873 16.1689 19.173L14.875 18.5353L13.5811 19.173C13.3723 19.2757 13.1277 19.2757 12.9189 19.173L11.625 18.5353L10.3311 19.173C10.1223 19.2757 9.87773 19.2757 9.66895 19.173L8.375 18.5353L7.08105 19.173C6.87227 19.2757 6.62773 19.2757 6.41895 19.173L5.125 18.5353L3.83105 19.173C3.59862 19.2873 3.32346 19.2737 3.10352 19.1368C2.88366 18.9999 2.75 18.7591 2.75 18.5001V1.50009C2.75004 1.24109 2.88366 1.00027 3.10352 0.863369C3.32344 0.726532 3.59865 0.712904 3.83105 0.827236L5.125 1.46493L6.41895 0.827236L6.49902 0.793056C6.68845 0.725809 6.89851 0.737433 7.08105 0.827236L8.375 1.46493L9.66895 0.827236L9.74902 0.793056C9.93845 0.725809 10.1485 0.737433 10.3311 0.827236L11.625 1.46493L12.9189 0.827236L12.999 0.793056C13.1885 0.725809 13.3985 0.737433 13.5811 0.827236L14.875 1.46493L16.1689 0.827236ZM11.9561 2.97275C11.7472 3.07552 11.5028 3.07552 11.2939 2.97275L10 2.33505L8.70605 2.97275C8.49723 3.07552 8.25277 3.07552 8.04395 2.97275L6.75 2.33505L5.45605 2.97275C5.24723 3.07552 5.00277 3.07552 4.79395 2.97275L4.25 2.70419V17.295L4.79395 17.0274L4.87402 16.9933C5.0635 16.926 5.27347 16.9376 5.45605 17.0274L6.75 17.6642L8.04395 17.0274L8.12402 16.9933C8.3135 16.926 8.52347 16.9376 8.70605 17.0274L10 17.6642L11.2939 17.0274L11.374 16.9933C11.5635 16.926 11.7735 16.9376 11.9561 17.0274L13.25 17.6642L14.5439 17.0274L14.624 16.9933C14.8135 16.926 15.0235 16.9376 15.2061 17.0274L15.75 17.295V2.70419L15.2061 2.97275C14.9972 3.07552 14.7528 3.07552 14.5439 2.97275L13.25 2.33505L11.9561 2.97275ZM10.8574 5.75009C11.8921 5.75017 12.8267 6.17554 13.5234 6.85458C13.8198 7.14371 13.8261 7.61858 13.5371 7.91513C13.2481 8.21142 12.7731 8.21754 12.4766 7.9288C12.0361 7.49955 11.469 7.25017 10.8574 7.25009C10.1356 7.25009 9.45777 7.61065 8.99609 8.20029H10.2139C10.6281 8.20029 10.9639 8.53608 10.9639 8.95029C10.9637 9.36435 10.628 9.70029 10.2139 9.70029H8.40723C8.39788 9.79835 8.39258 9.89844 8.39258 10.0001C8.39258 10.1018 8.39787 10.2018 8.40723 10.2999H10.2139C10.628 10.2999 10.9638 10.6358 10.9639 11.0499C10.9638 11.464 10.628 11.7999 10.2139 11.7999H8.99609C9.45777 12.3895 10.1356 12.7501 10.8574 12.7501C11.4689 12.75 12.0361 12.5006 12.4766 12.0714C12.7732 11.7826 13.2481 11.7887 13.5371 12.0851C13.8261 12.3816 13.8199 12.8565 13.5234 13.1456C12.8267 13.8246 11.8921 14.25 10.8574 14.2501C9.23545 14.2501 7.89006 13.2277 7.2666 11.7999H7C6.58583 11.7999 6.25008 11.464 6.25 11.0499C6.2501 10.6679 6.53584 10.3523 6.90527 10.3058C6.89846 10.2046 6.89258 10.1027 6.89258 10.0001C6.89258 9.89718 6.89842 9.79492 6.90527 9.69345C6.53593 9.64686 6.25017 9.33224 6.25 8.95029C6.25 8.53608 6.58579 8.20029 7 8.20029H7.2666C7.89004 6.7724 9.23541 5.75009 10.8574 5.75009Z" fill="currentColor"/>
</svg>
