<svg width="20" height="20" viewBox="0 0 20 20" fill="none" xmlns="http://www.w3.org/2000/svg">
<path d="M16.1689 0.827137C16.4014 0.712805 16.6766 0.726433 16.8965 0.863269C17.1163 1.00017 17.25 1.24099 17.25 1.49999V18.5C17.25 18.759 17.1163 18.9998 16.8965 19.1367C16.6765 19.2736 16.4014 19.2872 16.1689 19.1729L14.875 18.5352L13.5811 19.1729C13.3723 19.2756 13.1277 19.2756 12.9189 19.1729L11.625 18.5352L10.3311 19.1729C10.1223 19.2756 9.87773 19.2756 9.66895 19.1729L8.375 18.5352L7.08105 19.1729C6.87227 19.2756 6.62773 19.2756 6.41895 19.1729L5.125 18.5352L3.83105 19.1729C3.59862 19.2872 3.32346 19.2736 3.10352 19.1367C2.88366 18.9998 2.75 18.759 2.75 18.5V1.49999C2.75004 1.24099 2.88366 1.00017 3.10352 0.863269C3.32344 0.726433 3.59865 0.712805 3.83105 0.827137L5.125 1.46483L6.41895 0.827137L6.49902 0.792957C6.68845 0.72571 6.89851 0.737334 7.08105 0.827137L8.375 1.46483L9.66895 0.827137L9.74902 0.792957C9.93845 0.72571 10.1485 0.737334 10.3311 0.827137L11.625 1.46483L12.9189 0.827137L12.999 0.792957C13.1885 0.725709 13.3985 0.737334 13.5811 0.827137L14.875 1.46483L16.1689 0.827137ZM10.8574 5.74999C9.23541 5.74999 7.89004 6.7723 7.2666 8.20019H7C6.58579 8.20019 6.25 8.53598 6.25 8.95019C6.25017 9.33214 6.53593 9.64676 6.90527 9.69336C6.89842 9.79482 6.89258 9.89708 6.89258 10C6.89258 10.1026 6.89846 10.2045 6.90527 10.3057C6.53584 10.3522 6.2501 10.6678 6.25 11.0498C6.25008 11.464 6.58583 11.7998 7 11.7998H7.2666C7.89006 13.2276 9.23545 14.25 10.8574 14.25C11.8921 14.2499 12.8267 13.8245 13.5234 13.1455C13.8199 12.8564 13.8261 12.3815 13.5371 12.085C13.2481 11.7886 12.7732 11.7825 12.4766 12.0713C12.0361 12.5005 11.4689 12.7499 10.8574 12.75C10.1356 12.75 9.45777 12.3894 8.99609 11.7998H10.2139C10.628 11.7998 10.9638 11.464 10.9639 11.0498C10.9638 10.6357 10.628 10.2998 10.2139 10.2998H8.40723C8.39787 10.2017 8.39258 10.1017 8.39258 10C8.39258 9.89834 8.39788 9.79825 8.40723 9.70019H10.2139C10.628 9.70019 10.9637 9.36425 10.9639 8.95019C10.9639 8.53598 10.6281 8.20019 10.2139 8.20019H8.99609C9.45777 7.61055 10.1356 7.24999 10.8574 7.24999C11.469 7.25007 12.0361 7.49945 12.4766 7.92871C12.7731 8.21744 13.2481 8.21132 13.5371 7.91503C13.8261 7.61848 13.8198 7.14361 13.5234 6.85449C12.8267 6.17544 11.8921 5.75007 10.8574 5.74999Z" fill="currentColor"/>
</svg>
