<svg viewBox="0 0 290 290" fill="none" xmlns="http://www.w3.org/2000/svg">
	<path d="M145.134 54.5093C149.836 54.5093 154.454 54.8672 158.963 55.5576L157.666 63.9555C153.58 63.3298 149.395 63.0055 145.134 63.0055C140.873 63.0055 136.689 63.3298 132.603 63.9555L131.306 55.5576C135.815 54.8672 140.433 54.5093 145.134 54.5093Z" fill="#003CFC" />
	<path d="M166.64 57.0764L164.624 65.332C172.905 67.3472 180.694 70.6178 187.778 74.9305L192.19 67.6679C184.372 62.9092 175.778 59.3003 166.64 57.0764Z" fill="#003CFC" />
	<path d="M198.693 72.0215L193.672 78.876C200.443 83.8444 206.424 89.8261 211.393 96.5971L218.247 91.5761C212.765 84.1046 206.165 77.5041 198.693 72.0215Z" fill="#003CFC" />
	<path d="M222.601 98.0793L215.339 102.491C219.651 109.575 222.922 117.364 224.937 125.645L233.192 123.629C230.969 114.492 227.36 105.897 222.601 98.0793Z" fill="#003CFC" />
	<path d="M234.711 131.306L226.313 132.603C226.939 136.689 227.263 140.874 227.263 145.134C227.263 149.395 226.939 153.58 226.313 157.666L234.711 158.963C235.401 154.454 235.759 149.836 235.759 145.134C235.759 140.433 235.401 135.815 234.711 131.306Z" fill="#003CFC" />
	<path d="M215.338 187.779C219.651 180.694 222.921 172.905 224.937 164.625L233.192 166.641C230.968 175.777 227.359 184.372 222.601 192.19L215.338 187.779Z" fill="#003CFC" />
	<path d="M211.393 193.672L218.247 198.693C212.764 206.164 206.164 212.765 198.692 218.247L193.671 211.393C200.442 206.424 206.424 200.443 211.393 193.672Z" fill="#003CFC" />
	<path d="M187.778 215.338L192.189 222.601C184.372 227.36 175.777 230.969 166.64 233.192L164.624 224.937C172.904 222.922 180.693 219.651 187.778 215.338Z" fill="#003CFC" />
	<path d="M157.666 226.313L158.962 234.711C154.454 235.401 149.836 235.759 145.134 235.759C140.433 235.759 135.815 235.401 131.306 234.711L132.602 226.314C136.686 226.939 140.871 227.263 145.134 227.263C149.395 227.263 153.58 226.939 157.666 226.313Z" fill="#003CFC" />
	<path d="M125.644 224.939L123.628 233.192C116.764 231.522 110.207 229.07 104.055 225.936L95.4535 227.942L93.5229 219.669L105.146 216.957L107.911 218.365C113.483 221.204 119.423 223.425 125.644 224.939Z" fill="#003CFC" />
	<path d="M86.3524 221.342L88.2827 229.616L73.5397 233.056C63.7289 235.345 54.9236 226.54 57.2127 216.729L60.6527 201.986L68.9266 203.916L65.4866 218.659C64.6281 222.339 67.9301 225.64 71.6094 224.782L86.3524 221.342Z" fill="#003CFC" />
	<path d="M70.5997 196.746L62.3261 194.815L64.333 186.214C61.1989 180.062 58.7467 173.504 57.0763 166.64L65.3297 164.624C66.8431 170.845 69.0648 176.785 71.9034 182.358L73.312 185.123L70.5997 196.746Z" fill="#003CFC" />
	<path d="M63.9541 157.666L55.5576 158.962C54.8672 154.454 54.5093 149.836 54.5093 145.134C54.5093 140.433 54.8672 135.815 55.5576 131.306L63.9555 132.602C63.3298 136.688 63.0055 140.873 63.0055 145.134C63.0055 149.397 63.3296 153.582 63.9541 157.666Z" fill="#003CFC" />
	<path d="M65.3319 125.644L57.0763 123.628C59.3002 114.491 62.9091 105.897 67.6677 98.0789L74.9304 102.49C70.6177 109.575 67.3471 117.364 65.3319 125.644Z" fill="#003CFC" />
	<path d="M78.876 96.5969L72.0215 91.5756C77.5041 84.104 84.1043 77.5039 91.5761 72.0212L96.5971 78.8754C89.8259 83.8441 83.8444 89.8256 78.876 96.5969Z" fill="#003CFC" />
	<path d="M102.491 74.9302L98.0791 67.6676C105.897 62.9089 114.492 59.3 123.629 57.0764L125.645 65.3317C117.364 67.347 109.575 70.6175 102.491 74.9302Z" fill="#003CFC" />
	<path d="M218.767 145.134C218.767 185.801 185.801 218.767 145.134 218.767C132.235 218.767 120.111 215.45 109.568 209.623C108.553 209.062 107.368 208.877 106.239 209.141L73.4852 216.783L81.1278 184.03C81.3912 182.9 81.2062 181.715 80.6453 180.7C74.8181 170.157 71.5014 158.033 71.5014 145.134C71.5014 104.468 104.468 71.5015 145.134 71.5015C185.801 71.5015 218.767 104.468 218.767 145.134Z" fill="#003CFC" />
</svg>
