<svg width="20" height="20" viewBox="0 0 20 20" fill="none" xmlns="http://www.w3.org/2000/svg">
<path d="M2.25 16.7627V7.68848C2.25011 7.27435 2.58585 6.93848 3 6.93848C3.41415 6.93848 3.74989 7.27435 3.75 7.68848V16.7627C3.75 16.7533 3.74851 16.7831 3.78711 16.8535C3.82407 16.921 3.88066 16.9932 3.94336 17.0557C4.00607 17.1181 4.07918 17.1748 4.14746 17.2119C4.21749 17.2499 4.24909 17.25 4.24316 17.25H11.2852C11.6994 17.25 12.0352 17.5858 12.0352 18C12.0352 18.4142 11.6994 18.75 11.2852 18.75H4.24316C3.63444 18.75 3.14102 18.3743 2.88477 18.1191C2.62917 17.8646 2.25002 17.3725 2.25 16.7627ZM5.25 13.3252V3.61816C5.25 2.32741 6.36938 1.25026 7.64941 1.25H12.5996C12.796 1.25 12.9848 1.32737 13.125 1.46484L17.5254 5.77832C17.6692 5.91937 17.75 6.11299 17.75 6.31445V13.3252C17.7498 14.616 16.6297 15.6924 15.3496 15.6924H7.64941C6.3695 15.6921 5.2502 14.6158 5.25 13.3252ZM12.75 4.98633C12.75 5.31444 12.8812 5.63026 13.1152 5.86328C13.3494 6.09628 13.6675 6.22754 14 6.22754H15.8398L12.75 3.19629V4.98633ZM6.75 13.3252C6.75022 13.7597 7.16996 14.1921 7.64941 14.1924H15.3496C15.8293 14.1924 16.2498 13.7599 16.25 13.3252V7.72754H14C13.2717 7.72754 12.5726 7.43948 12.0566 6.92578C11.5407 6.41198 11.25 5.71433 11.25 4.98633V2.75H7.64941C7.16983 2.75028 6.75 3.18352 6.75 3.61816V13.3252Z" fill="currentColor"/>
</svg>
