<svg width="16" height="18" viewBox="0 0 16 18" fill="none" xmlns="http://www.w3.org/2000/svg">
<path d="M0 15.5127V6.43848C0.000107184 6.02435 0.335853 5.68848 0.75 5.68848C1.16415 5.68848 1.49989 6.02435 1.5 6.43848V15.5127C1.5 15.5033 1.49851 15.5331 1.53711 15.6035C1.57407 15.671 1.63066 15.7432 1.69336 15.8057C1.75607 15.8681 1.82918 15.9248 1.89746 15.9619C1.96749 15.9999 1.99909 16 1.99316 16H9.03516C9.44937 16 9.78516 16.3358 9.78516 16.75C9.78516 17.1642 9.44937 17.5 9.03516 17.5H1.99316C1.38444 17.5 0.89102 17.1243 0.634766 16.8691C0.37917 16.6146 2.29416e-05 16.1225 0 15.5127ZM3 12.0752V2.36816C3 1.07741 4.11938 0.00026015 5.39941 0H10.3496C10.546 0 10.7348 0.0773726 10.875 0.214844L15.2754 4.52832C15.4192 4.66937 15.5 4.86299 15.5 5.06445V12.0752C15.4998 13.366 14.3797 14.4424 13.0996 14.4424H5.39941C4.1195 14.4421 3.0002 13.3658 3 12.0752ZM10.5 3.73633C10.5 4.06444 10.6312 4.38026 10.8652 4.61328C11.0994 4.84628 11.4175 4.97754 11.75 4.97754H13.5898L10.5 1.94629V3.73633ZM4.5 12.0752C4.50022 12.5097 4.91996 12.9421 5.39941 12.9424H13.0996C13.5793 12.9424 13.9998 12.5099 14 12.0752V6.47754H11.75C11.0217 6.47754 10.3226 6.18948 9.80664 5.67578C9.29066 5.16198 9 4.46433 9 3.73633V1.5H5.39941C4.91983 1.50028 4.5 1.93352 4.5 2.36816V12.0752Z" fill="currentColor"/>
</svg>
