<svg width="20" height="20" viewBox="0 0 20 20" fill="none" xmlns="http://www.w3.org/2000/svg">
<path d="M3 6.93848C3.41413 6.93848 3.74987 7.27437 3.75 7.68848V16.7627C3.74998 16.754 3.74896 16.7838 3.78711 16.8535C3.82406 16.9209 3.88072 16.9933 3.94336 17.0557C4.00607 17.1181 4.07918 17.1748 4.14746 17.2119C4.20639 17.2439 4.23812 17.2492 4.24316 17.25H11.2852C11.6993 17.25 12.035 17.5859 12.0352 18C12.035 18.4141 11.6993 18.75 11.2852 18.75H4.24316C3.63444 18.75 3.14102 18.3743 2.88477 18.1191C2.6292 17.8647 2.25011 17.3723 2.25 16.7627V7.68848C2.25013 7.27437 2.58587 6.93848 3 6.93848ZM11.25 4.59961C11.25 5.43504 11.5821 6.23641 12.1729 6.82715C12.7636 7.41789 13.565 7.75 14.4004 7.75H17.75V13.3252C17.7498 14.6159 16.6297 15.6923 15.3496 15.6924H7.65039C6.37028 15.6924 5.2502 14.616 5.25 13.3252V3.61816C5.25 2.32725 6.37016 1.25 7.65039 1.25H11.25V4.59961ZM12.75 1.26562C12.8905 1.29449 13.0212 1.36303 13.125 1.46484L17.5254 5.77832C17.6537 5.90417 17.7278 6.07223 17.7432 6.25H14.4004C13.9628 6.25 13.5428 6.07604 13.2334 5.7666C12.924 5.45717 12.75 5.03722 12.75 4.59961V1.26562Z" fill="currentColor"/>
</svg>
