<svg width="20" height="20" viewBox="0 0 20 20" fill="none" xmlns="http://www.w3.org/2000/svg">
<path d="M14.875 1.25C16.1755 1.25 17.2498 2.291 17.25 3.59961V16.4004C17.2498 17.709 16.1755 18.75 14.875 18.75H5.125C3.82446 18.75 2.75021 17.709 2.75 16.4004V3.59961C2.75021 2.291 3.82446 1.25 5.125 1.25H14.875ZM5.125 2.75C4.63089 2.75 4.25022 3.14126 4.25 3.59961V16.4004C4.25022 16.8587 4.63089 17.25 5.125 17.25H14.875C15.3691 17.25 15.7498 16.8587 15.75 16.4004V3.59961C15.7498 3.14126 15.3691 2.75 14.875 2.75H5.125ZM6.67578 14.25C7.08962 14.2504 7.42578 14.5861 7.42578 15C7.42565 15.4138 7.08954 15.7496 6.67578 15.75H6.66699C6.25286 15.75 5.91712 15.4141 5.91699 15C5.91699 14.5858 6.25278 14.25 6.66699 14.25H6.67578ZM10.0088 14.25C10.4227 14.2503 10.7588 14.586 10.7588 15C10.7587 15.4139 10.4227 15.7497 10.0088 15.75H10C9.58587 15.75 9.25013 15.4141 9.25 15C9.25 14.5858 9.58579 14.25 10 14.25H10.0088ZM13.333 10.917C13.7472 10.917 14.083 11.2528 14.083 11.667V15C14.0827 15.414 13.7471 15.75 13.333 15.75C12.9191 15.7499 12.5833 15.4139 12.583 15V11.667C12.583 11.2529 12.9189 10.9171 13.333 10.917ZM6.67578 10.917C7.08962 10.9174 7.42578 11.2531 7.42578 11.667C7.42552 12.0807 7.08945 12.4165 6.67578 12.417H6.66699C6.25294 12.417 5.91726 12.081 5.91699 11.667C5.91699 11.2528 6.25278 10.917 6.66699 10.917H6.67578ZM10.0088 10.917C10.4227 10.9173 10.7588 11.253 10.7588 11.667C10.7585 12.0808 10.4226 12.4167 10.0088 12.417H10C9.58595 12.417 9.25026 12.081 9.25 11.667C9.25 11.2528 9.58579 10.917 10 10.917H10.0088ZM6.67578 7.58301C7.08954 7.58345 7.42565 7.91918 7.42578 8.33301C7.42578 8.74695 7.08962 9.08256 6.67578 9.08301H6.66699C6.25278 9.08301 5.91699 8.74722 5.91699 8.33301C5.91712 7.91891 6.25286 7.58301 6.66699 7.58301H6.67578ZM10.0088 7.58301C10.4227 7.58332 10.7587 7.9191 10.7588 8.33301C10.7588 8.74703 10.4227 9.0827 10.0088 9.08301H10C9.58579 9.08301 9.25 8.74722 9.25 8.33301C9.25013 7.91891 9.58587 7.58301 10 7.58301H10.0088ZM13.3418 7.58301C13.7557 7.58325 14.0917 7.91906 14.0918 8.33301C14.0918 8.74707 13.7558 9.08276 13.3418 9.08301H13.333C12.9189 9.08288 12.583 8.74714 12.583 8.33301C12.5831 7.91899 12.919 7.58314 13.333 7.58301H13.3418ZM13.334 4.25C13.7478 4.25041 14.084 4.58604 14.084 5C14.084 5.41396 13.7478 5.74959 13.334 5.75H6.66699C6.25278 5.75 5.91699 5.41421 5.91699 5C5.91699 4.58579 6.25278 4.25 6.66699 4.25H13.334Z" fill="currentColor"/>
</svg>
