<svg width="20" height="20" viewBox="0 0 20 20" fill="none" xmlns="http://www.w3.org/2000/svg">
<path d="M14.875 1.25C16.1755 1.25 17.2498 2.291 17.25 3.59961V16.4004C17.2498 17.709 16.1755 18.75 14.875 18.75H5.125C3.82446 18.75 2.75021 17.709 2.75 16.4004V3.59961C2.75021 2.291 3.82446 1.25 5.125 1.25H14.875ZM6.66699 14.25C6.25278 14.25 5.91699 14.5858 5.91699 15C5.91712 15.4141 6.25286 15.75 6.66699 15.75H6.67578C7.08954 15.7496 7.42565 15.4138 7.42578 15C7.42578 14.5861 7.08962 14.2504 6.67578 14.25H6.66699ZM10 14.25C9.58579 14.25 9.25 14.5858 9.25 15C9.25013 15.4141 9.58587 15.75 10 15.75H10.0088C10.4227 15.7497 10.7587 15.4139 10.7588 15C10.7588 14.586 10.4227 14.2503 10.0088 14.25H10ZM13.333 10.917C12.9189 10.9171 12.583 11.2529 12.583 11.667V15C12.5833 15.4139 12.9191 15.7499 13.333 15.75C13.7471 15.75 14.0827 15.414 14.083 15V11.667C14.083 11.2528 13.7472 10.917 13.333 10.917ZM6.66699 10.917C6.25278 10.917 5.91699 11.2528 5.91699 11.667C5.91726 12.081 6.25294 12.417 6.66699 12.417H6.67578C7.08945 12.4165 7.42552 12.0807 7.42578 11.667C7.42578 11.2531 7.08962 10.9174 6.67578 10.917H6.66699ZM10 10.917C9.58579 10.917 9.25 11.2528 9.25 11.667C9.25026 12.081 9.58595 12.417 10 12.417H10.0088C10.4226 12.4167 10.7585 12.0808 10.7588 11.667C10.7588 11.253 10.4227 10.9173 10.0088 10.917H10ZM6.66699 7.58301C6.25286 7.58301 5.91712 7.91891 5.91699 8.33301C5.91699 8.74722 6.25278 9.08301 6.66699 9.08301H6.67578C7.08962 9.08256 7.42578 8.74695 7.42578 8.33301C7.42565 7.91918 7.08954 7.58345 6.67578 7.58301H6.66699ZM10 7.58301C9.58587 7.58301 9.25013 7.91891 9.25 8.33301C9.25 8.74722 9.58579 9.08301 10 9.08301H10.0088C10.4227 9.0827 10.7588 8.74703 10.7588 8.33301C10.7587 7.9191 10.4227 7.58332 10.0088 7.58301H10ZM13.333 7.58301C12.919 7.58314 12.5831 7.91899 12.583 8.33301C12.583 8.74714 12.9189 9.08288 13.333 9.08301H13.3418C13.7558 9.08276 14.0918 8.74707 14.0918 8.33301C14.0917 7.91906 13.7557 7.58325 13.3418 7.58301H13.333ZM6.66699 4.25C6.25278 4.25 5.91699 4.58579 5.91699 5C5.91699 5.41421 6.25278 5.75 6.66699 5.75H13.334C13.7478 5.74959 14.084 5.41396 14.084 5C14.084 4.58604 13.7478 4.25041 13.334 4.25H6.66699Z" fill="currentColor"/>
</svg>
