<svg viewBox="0 0 48 48" fill="none" xmlns="http://www.w3.org/2000/svg">
<path d="M11 13.5646H37M19 13.5646V11.5267C19 11.0125 19.2054 10.5195 19.5711 10.1559C19.9368 9.79237 20.4328 9.58813 20.95 9.58813H27.05C27.3061 9.58813 27.5596 9.63828 27.7962 9.7357C28.0328 9.83312 28.2478 9.97591 28.4289 10.1559C28.6099 10.3359 28.7536 10.5496 28.8516 10.7848C28.9496 11.02 29 11.2721 29 11.5267V13.5646M34.25 13.5646L32.8 36.9761C32.7872 37.6181 32.525 38.2302 32.0683 38.6842C31.6115 39.1383 30.9958 39.3989 30.35 39.4117H17.65C17.0042 39.3989 16.3885 39.1383 15.9317 38.6842C15.475 38.2302 15.2128 37.6181 15.2 36.9761L13.75 13.5646" stroke-width="2" stroke-miterlimit="10" stroke-linecap="round" stroke-linejoin="round"/>
<path d="M24 17.2351V35.588M18.6471 17.2351L19.7177 35.588M29.353 17.2351L28.2824 35.588" stroke-width="2" stroke-miterlimit="10" stroke-linecap="round" stroke-linejoin="round"/>
</svg>
