<svg width="20" height="20" viewBox="0 0 20 20" fill="none" xmlns="http://www.w3.org/2000/svg">
<path d="M1.01324 17.502C1.01324 16.3935 1.00505 15.6729 1.18902 15.0664C1.58494 13.7615 2.6067 12.7406 3.91168 12.3447C4.51801 12.1609 5.23822 12.1689 6.34625 12.1689H7.59625C8.01046 12.1689 8.34625 12.5047 8.34625 12.9189C8.34607 13.333 8.01035 13.6689 7.59625 13.6689H6.34625C5.12896 13.6689 4.68608 13.6772 4.34625 13.7803C3.52089 14.0308 2.87499 14.6765 2.62457 15.502C2.52147 15.8418 2.51324 16.2844 2.51324 17.502C2.51324 17.9162 2.17745 18.252 1.76324 18.252C1.34902 18.252 1.01324 17.9162 1.01324 17.502ZM15.191 8.42969C16.0592 7.5615 17.4673 7.56152 18.3355 8.42969C19.2037 9.29789 19.2037 10.706 18.3355 11.5742L12.9546 16.9551C12.8792 17.0305 12.788 17.124 12.6802 17.2031C12.5939 17.2665 12.5012 17.3205 12.4039 17.3652C12.2823 17.421 12.1559 17.4551 12.0533 17.4844L9.46929 18.2227C9.2074 18.2975 8.92556 18.2248 8.73296 18.0322C8.54037 17.8396 8.46771 17.5578 8.54254 17.2959L9.28082 14.7119C9.31013 14.6093 9.34414 14.4829 9.39996 14.3613C9.44464 14.264 9.4987 14.1713 9.56207 14.085C9.64117 13.9772 9.73469 13.886 9.81011 13.8105L15.191 8.42969ZM17.275 9.49023C16.9925 9.20784 16.5339 9.20783 16.2515 9.49023L10.8716 14.8711C10.8232 14.9196 10.7978 14.9448 10.7798 14.9639C10.7652 14.9794 10.766 14.9796 10.7711 14.9727C10.7678 14.9771 10.7656 14.9823 10.7632 14.9873C10.7623 14.99 10.7609 14.994 10.7593 14.999C10.7514 15.024 10.742 15.0584 10.7232 15.124L10.355 16.4092L11.6421 16.042C11.7074 16.0233 11.7413 16.0138 11.7662 16.0059C11.7712 16.0043 11.7752 16.0029 11.7779 16.002C11.7829 15.9996 11.788 15.9974 11.7925 15.9941C11.7856 15.9992 11.7858 16 11.8013 15.9854C11.8204 15.9674 11.8456 15.942 11.8941 15.8936L17.275 10.5137C17.5574 10.2313 17.5574 9.77265 17.275 9.49023ZM11.4302 6.25195C11.4302 4.59521 10.0869 3.25213 8.43023 3.25195C6.77338 3.25195 5.43023 4.5951 5.43023 6.25195C5.43023 7.90881 6.77338 9.25195 8.43023 9.25195C10.0869 9.25178 11.4302 7.9087 11.4302 6.25195ZM12.9302 6.25195C12.9302 8.73713 10.9154 10.7518 8.43023 10.752C5.94495 10.752 3.93023 8.73723 3.93023 6.25195C3.93023 3.76667 5.94495 1.75195 8.43023 1.75195C10.9154 1.75213 12.9302 3.76678 12.9302 6.25195Z" fill="currentColor"/>
</svg>
