<svg width="20" height="20" viewBox="0 0 20 20" fill="none" xmlns="http://www.w3.org/2000/svg">
<path d="M6.59673 12.167C7.01082 12.1671 7.34672 12.5029 7.34672 12.917V17.5C7.34672 17.9141 7.01082 18.2499 6.59673 18.25H1.76373C1.34951 18.25 1.01373 17.9142 1.01373 17.5C1.01373 16.3916 1.00554 15.6709 1.18951 15.0645C1.58544 13.7595 2.60721 12.7386 3.91216 12.3428C4.51844 12.159 5.23885 12.167 6.34673 12.167H6.59673ZM15.1914 8.42773C16.0596 7.55968 17.4678 7.55961 18.336 8.42773C19.204 9.2959 19.204 10.7041 18.336 11.5723L12.9551 16.9531C12.8797 17.0285 12.7884 17.1221 12.6807 17.2012C12.5944 17.2645 12.5016 17.3186 12.4043 17.3633C12.2829 17.4191 12.1563 17.4531 12.0537 17.4824L9.46977 18.2207C9.20793 18.2955 8.92604 18.2228 8.73344 18.0303C8.54084 17.8377 8.46818 17.5558 8.54301 17.2939L9.28129 14.71C9.3106 14.6074 9.34463 14.4809 9.40043 14.3594C9.44511 14.2621 9.4992 14.1693 9.56254 14.083C9.64162 13.9753 9.7352 13.884 9.81059 13.8086L15.1914 8.42773ZM8.43071 1.75C10.9157 1.75031 12.9307 3.76491 12.9307 6.25C12.9307 8.73509 10.9157 10.7497 8.43071 10.75C5.94543 10.75 3.93071 8.73528 3.93071 6.25C3.93071 3.76472 5.94543 1.75 8.43071 1.75Z" fill="currentColor"/>
</svg>
