<?xml version="1.0" encoding="utf-8"?>
<!-- Generator: Adobe Illustrator 28.3.0, SVG Export Plug-In . SVG Version: 6.00 Build 0)  -->
<svg version="1.1" id="vereinfacht-wort-bildmarke" xmlns="http://www.w3.org/2000/svg" xmlns:xlink="http://www.w3.org/1999/xlink"
	 x="0px" y="0px" viewBox="0 0 1500 271.8470764" style="enable-background:new 0 0 1500 271.8470764;" xml:space="preserve">
<style type="text/css">
	.st0{fill:#0059FF;}
	.st1{fill:#313148;}
</style>
<path id="vereinfacht-bildmarke" class="st0" d="M211.4696808,30.2382832v150.5965881
	c-0.5948181,1.5862427-6.9399261,15.5652313-48.3812408,38.2687531
	c-16.1601105,8.9227753-32.2211151,15.9618225-42.3336029,20.2249756
	c-10.1124878-4.2631531-26.0743103-11.4013214-42.3336105-20.2249756
	c-41.4413071-22.7035217-47.687233-36.6825104-48.3812408-38.2687531V30.2382832H211.4696808 M241.7079773,0H0v181.2313385
	c0,45.3079376,120.8540115,90.6157379,120.8540115,90.6157379s120.8539658-45.3078003,120.8539658-90.6157379V0L241.7079773,0z"/>
<g>
	<path class="st1" d="M433.0263672,76.2892838H462.9263l-38.4720764,104.5455093h-33.664032l-38.473053-104.5455093h30.73703
		l24.6724243,82.8001022L433.0263672,76.2892838z"/>
	<path class="st1" d="M567.8884888,98.0347519c-3.9042358-7.387146-9.5140381-13.2048416-16.8325806-17.458992
		c-7.3173828-4.2502899-16.135498-6.378273-26.4494629-6.378273c-10.1767578,0-19.1684265,2.1279831-26.973053,6.378273
		c-7.8084106,4.2541504-13.9407959,10.4552307-18.3998718,18.6086807
		c-4.4629517,8.1556168-6.6910706,17.9490433-6.6910706,29.3766556c0,11.4314117,2.2281189,21.2229767,6.6910706,29.378479
		c4.4590759,8.1535645,10.6962891,14.3583832,18.7135925,18.6086731c8.0143738,4.2541504,17.3873596,6.3782654,28.1227722,6.3782654
		c6.9685059,0,13.5194092-1.0144348,19.6546021-3.0318146c6.1323242-2.0193329,11.4638672-4.9825134,15.9954224-8.8877258
		c4.527771-3.8993988,7.8408813-8.6417389,9.9316406-14.2172089l-23-8.7828674
		c-1.9536133,4.3227539-4.7766724,7.7035828-8.4683228,10.1423798c-3.694397,2.4388428-8.3995361,3.6573029-14.1133423,3.6573029
		c-5.2990723,0-9.899292-1.1821899-13.7996826-3.5543213c-3.9042358-2.3682709-6.9007874-5.9912567-8.9916382-10.8727112
		c-1.4000244-3.2660675-2.3198853-7.1082611-2.7823181-11.5000763H572.90625
		c0.2775269-1.5312042,0.4872437-3.3769684,0.6274414-5.541214c0.137207-2.1585541,0.2087402-4.4944305,0.2087402-7.0038147
		C573.7424316,113.8575668,571.7888794,105.4255219,567.8884888,98.0347519z M511.3291931,99.0796432
		c3.6915588-2.5093155,8.1182556-3.7641602,13.2772522-3.7641602c4.6001587,0,8.5005493,1.1175385,11.7088013,3.3465652
		c3.2053833,2.2309647,5.6452026,5.4363556,7.3183594,9.6181107c1.2045898,3.0119476,1.968811,6.5025864,2.3059082,10.4550552
		h-45.1012573c0.4703369-3.1498566,1.1783752-5.9737854,2.1266479-8.4682388
		C504.8469238,105.32061,507.6337585,101.5889664,511.3291931,99.0796432z"/>
	<path class="st1" d="M598.1582031,180.8347931V76.2892685h25.2998047l1.4634399,21.1181183
		c2.5094604-7.387085,6.3774414-13.101799,11.6050415-17.1461868c5.227478-4.0405807,11.673584-6.0637131,19.3408813-6.0637131
		c2.3682861,0,4.4953003,0.2097626,6.3774414,0.6273575c1.882019,0.4194717,3.4503784,0.9781799,4.7040405,1.6741867
		l-3.34552,24.2529297c-1.1164551-0.5549011-2.6848145-1.0087585-4.7041016-1.3576965
		c-2.0222778-0.3470078-4.5668335-0.5224457-7.6320801-0.5224457c-4.1817017,0-8.1221313,1.0449524-11.8137207,3.1348038
		c-3.694458,2.0917816-6.6911011,5.1960678-8.9907227,9.3053055c-2.2996216,4.1130447-3.4503784,9.2366562-3.4503784,15.3690186
		v54.1538467H598.1582031z"/>
	<path class="st1" d="M771.3764038,98.0347519c-3.9042358-7.387146-9.5140381-13.2048416-16.8325195-17.458992
		c-7.3173828-4.2502899-16.135498-6.378273-26.449585-6.378273c-10.1767578,0-19.1682739,2.1279831-26.9729004,6.378273
		c-7.8084717,4.2541504-13.9407959,10.4552307-18.3999023,18.6086807
		c-4.4628906,8.1556168-6.6911011,17.9490433-6.6911011,29.3766556c0,11.4314117,2.2282104,21.2229767,6.6911011,29.378479
		c4.4591064,8.1535645,10.6963501,14.3583832,18.713562,18.6086731c8.0143433,4.2541504,17.3873291,6.3782654,28.1227417,6.3782654
		c6.9685669,0,13.5194702-1.0144348,19.6546631-3.0318146c6.1322632-2.0193329,11.4638672-4.9825134,15.9954224-8.8877258
		c4.527771-3.8993988,7.8408813-8.6417389,9.9316406-14.2172089l-23.000061-8.7828674
		c-1.9535522,4.3227539-4.7766724,7.7035828-8.4682617,10.1423798c-3.694458,2.4388428-8.3995361,3.6573029-14.1134033,3.6573029
		c-5.2990723,0-9.899292-1.1821899-13.7996216-3.5543213c-3.9042358-2.3682709-6.9008179-5.9912567-8.9916992-10.8727112
		c-1.4000854-3.2660675-2.3198853-7.1082611-2.7823486-11.5000763h72.4100952
		c0.2775269-1.5312042,0.4871826-3.3769684,0.6274414-5.541214c0.137146-2.1585541,0.2087402-4.4944305,0.2087402-7.0038147
		C777.2304077,113.8575668,775.2767944,105.4255219,771.3764038,98.0347519z M714.8170776,99.0796432
		c3.6916504-2.5093155,8.1184082-3.7641602,13.2772217-3.7641602c4.6002197,0,8.5007324,1.1175385,11.7089233,3.3465652
		c3.2053833,2.2309647,5.6452026,5.4363556,7.3183594,9.6181107c1.2045288,3.0119476,1.968689,6.5025864,2.3059082,10.4550552
		h-45.1013184c0.470459-3.1498566,1.1784668-5.9737854,2.126709-8.4682388
		C708.3348999,105.32061,711.1217041,101.5889664,714.8170776,99.0796432z"/>
	<path class="st1" d="M815.4908447,61.652462c-6.1361694,0-10.7001343-1.2871132-13.6958008-3.8689537
		c-2.9994507-2.5760994-4.4953003-6.5137024-4.4953003-11.8127518c0-5.1560669,1.4958496-9.0230827,4.4953003-11.6049232
		c2.9956665-2.5780334,7.5596313-3.8670788,13.6958008-3.8670788c6.1322632,0,10.6639404,1.2890453,13.5908813,3.8670788
		c2.927002,2.5818405,4.3905029,6.4488564,4.3905029,11.6049232c0,5.2990494-1.463501,9.2366524-4.3905029,11.8127518
		C826.1547852,60.3653488,821.6231079,61.652462,815.4908447,61.652462z M829.4993286,76.2892685v104.5455246h-28.854126V76.2892685
		H829.4993286z"/>
	<path class="st1" d="M952.7583618,91.1339722c-3.1357422-5.5736618-7.4221802-9.7916794-12.8586426-12.6499405
		c-5.4364014-2.8545151-11.7088013-4.2865448-18.8184204-4.2865448c-9.4807739,0-17.5637817,2.5818405-24.2548828,7.7378998
		c-4.678833,3.6072769-8.2979736,8.4465485-10.8639526,14.5080261l-1.0536499-20.1540833h-25.7182617v104.5454636h28.8540649
		v-55.8280334c0-6.6910706,1.0782471-12.1274261,3.2415161-16.3090668c2.1595459-4.181694,4.9816895-7.2135162,8.4683228-9.0955429
		c3.4827881-1.8821335,7.1085205-2.8221207,10.8726807-2.8221207c5.2952271,0,9.618042,1.7447128,12.963501,5.2266541
		c3.3455811,3.4855576,5.0178833,9.4806824,5.0178833,17.9831924v60.8449173h28.8549805v-68.7906494
		C957.463501,103.680809,955.8950806,96.71138,952.7583618,91.1339722z"/>
	<path class="st1" d="M1021.3973389,66.0439224c0-5.9912567,1.5683594-10.2091522,4.7050781-12.6499405
		c3.1358643-2.4369202,7.213501-3.6591263,12.2322998-3.6591263c2.6467285,0,4.9462891,0.2802887,6.8989258,0.8351898
		c1.9526367,0.5586472,3.6915283,1.3271217,5.2285156,2.301548l3.5543213-18.8185043
		c-1.9526367-1.5330772-4.847168-2.8564491-8.6761475-3.9738636c-3.8365479-1.1135483-8.2602539-1.6723156-13.2791748-1.6723156
		c-7.1094971,0-13.5583496,1.2909794-19.3408813,3.8689499c-5.7862549,2.5800285-10.3501587,6.5176315-13.6958008,11.8128166
		c-3.345459,5.2990494-5.0177612,11.9901237-5.0177612,20.0731049v12.1275482h-17.3549194v21.3277054h17.3549194v83.2177582
		h28.8540649V97.6170349h30.3204956V76.2893295h-31.7839355V66.0439224z"/>
	<path class="st1" d="M1167.6555176,163.0613098c-1.1860352,0.1410522-2.3358154,0.2097015-3.4493408,0.2097015
		c-4.8814697,0-7.3183594-2.7172089-7.3183594-8.1535645v-42.4459457c0-8.5005722-1.8497314-15.6111832-5.5412598-21.3278275
		c-3.6954346-5.7147064-8.8858643-10.0013809-15.5769043-12.859642c-6.69104-2.8545151-14.6367188-4.2865448-23.8372803-4.2865448
		c-13.5212402,0-24.2547607,2.7916641-32.1986084,8.3653259c-7.9458008,5.57547-13.0369873,13.0350189-15.2641602,22.3727188
		l24.2548828,7.3164368c1.6723633-6.2715454,4.3895264-10.7316589,8.1535645-13.3800964
		c3.7640381-2.6467438,8.2928467-3.9738617,13.5917969-3.9738617c5.4364014,0,9.7229004,1.7084579,12.8577881,5.1235504
		c3.1367188,3.4171524,4.7060547,8.0487747,4.7060547,13.9046021v3.5939789l-36.1744385,7.6963806
		c-9.4807129,1.954483-16.5169678,5.4363556-21.118042,10.4551239c-4.5992432,5.0168152-6.8989258,11.2216492-6.8989258,18.6086731
		c0,9.3396301,3.1691895,16.4502411,9.5131836,21.3278198c6.342041,4.8796539,14.5318604,7.3183746,24.5675049,7.3183746
		c5.855835,0,11.4295654-0.9419098,16.7285156-2.8239288c5.2952881-1.882019,9.7554932-4.7727966,13.3822021-8.6760712
		c1.2523193-1.3485718,2.3087158-2.8133698,3.1945801-4.378952c0.5388184,2.0543213,1.3155518,3.9016418,2.3466797,5.5287628
		c2.1584473,3.4170227,5.1541748,5.9264679,8.9907227,7.5262604c3.8306885,1.6017303,8.1173096,2.4045258,12.857666,2.4045258
		c2.928833,0,5.5050049-0.2078857,7.737915-0.6274261c2.2270508-0.4175873,4.1816406-1.0448914,5.8540039-1.882019
		l1.6721191-17.5637817C1169.8521729,162.7161102,1168.8378906,162.923996,1167.6555176,163.0613098z M1126.2565918,151.6660919
		c-1.1860352,2.5818329-2.791626,4.7404022-4.809082,6.4831848c-2.0231934,1.7429047-4.3590088,2.9974976-7.0057373,3.7622223
		c-2.6485596,0.7683563-5.3676758,1.1498108-8.1535645,1.1498108c-4.0444336,0-7.3546143-0.9725037-9.9326172-2.9270325
		c-2.5799561-1.9506836-3.8690186-4.7365417-3.8690186-8.3633423c0-3.7640381,1.2547607-6.6185455,3.7641602-8.5730896
		c2.5092773-1.9506683,6.1323242-3.4132233,10.8726807-4.3914032l20.9102783-4.3628082v7.9190216
		C1128.0336914,145.9875793,1127.4387207,149.0880585,1126.2565918,151.6660919z"/>
	<path class="st1" d="M1233.206543,74.1974869c9.3358154,0,17.2128906,1.3957672,23.6274414,4.181633
		c6.4089355,2.7916031,11.5325928,6.4832458,15.3671875,11.0824738c3.8326416,4.5992889,6.5155029,9.8278198,8.0505371,15.6817703
		l-26.7641602,9.6179886c-1.2547607-6.4087906-3.4494629-11.2178497-6.5861816-14.4269867
		c-3.1367188-3.2053909-7.5625-4.8090591-13.2772217-4.8090591c-5.0187988,0-9.3395996,1.2547226-12.9644775,3.7641068
		c-3.6248779,2.5093765-6.3439941,6.2028885-8.1535645,11.0824738c-1.8134766,4.8795166-2.7192383,11.0118866-2.7192383,18.3989105
		c0,7.3908997,0.9744873,13.5232086,2.928833,18.4009094c1.9488525,4.8795166,4.7366943,8.5044403,8.3634033,10.8726501
		c3.6230469,2.3721313,7.873291,3.5543365,12.7547607,3.5543365c4.0406494,0,7.4899902-0.7322083,10.3502197-2.19664
		c2.8544922-1.4624786,5.1542969-3.5867157,6.8989258-6.3763885c1.7409668-2.787796,2.9594727-6.2010193,3.6591797-10.2454224
		l25.927124,8.5731049c-1.2546387,6.1342926-3.9394531,11.6049805-8.0487061,16.4139099
		c-4.1149902,4.8090668-9.4101562,8.5387726-15.8914795,11.1855164c-6.4813232,2.6466217-14.0456543,3.9737396-22.6873779,3.9737396
		c-10.5943604,0-19.8996582-2.1603699-27.9140625-6.4831848c-8.0162354-4.3189392-14.25354-10.5218201-18.713501-18.6086731
		c-4.4620361-8.0830383-6.69104-17.8421478-6.69104-29.2735596c0-11.4276123,2.2290039-21.1867752,6.69104-29.2716827
		c4.4599609-8.083046,10.62854-14.2878723,18.5057373-18.6087418
		C1213.7932129,76.3617325,1222.8887939,74.1974869,1233.206543,74.1974869z"/>
	<path class="st1" d="M1302.6207275,180.8347931V30.7065849h28.855957v63.9816628
		c3.2053223-6.8264465,7.6634521-11.950119,13.3820801-15.3671494c5.7128906-3.4151001,12.2647705-5.1236115,19.6536865-5.1236115
		c7.1086426,0,13.3820801,1.3957672,18.8183594,4.181633c5.4364014,2.7916031,9.7229004,7.0056915,12.8597412,12.6518097
		c3.1367188,5.6441879,4.7041016,12.6498795,4.7041016,21.0132141v68.7906494h-28.854126v-60.6370239
		c0-8.6417542-1.6740723-14.7397919-5.0187988-18.2941284c-3.3464355-3.5562057-7.6672363-5.333374-12.9643555-5.333374
		c-3.762207,0-7.3890381,0.9781723-10.8726807,2.9269714c-3.4857178,1.954483-6.3078613,5.0550232-8.4683838,9.3053131
		c-2.1622314,4.2541504-3.239624,9.7953568-3.239624,16.6236801v55.4085617H1302.6207275z"/>
	<path class="st1" d="M1495.8183594,155.7428741c-2.0899658,1.6741791-4.3914795,3.0318909-6.8989258,4.0787201
		c-2.5093994,1.0448914-5.4364014,1.5673981-8.7828369,1.5673981c-4.4619141,0-7.9458008-1.1822052-10.4550781-3.5543365
		c-2.5075684-2.3682709-3.762207-6.2010193-3.762207-11.5000763V97.6170349h32.4083252V76.2893295h-32.4083252V44.2985001
		l-28.6462402,7.9456749v24.0451546h-18.4008789v21.3277054h18.4008789v53.5265503
		c0,11.572525,3.2053223,19.758606,9.6179199,24.5675354c6.4108887,4.8109894,14.9152832,7.2153931,25.5096436,7.2153931
		c5.295166,0,10.3825684-0.7683411,15.2641602-2.3014221c4.8775635-1.5312653,8.9906006-3.5543365,12.3352051-6.0637817
		L1495.8183594,155.7428741z"/>
</g>
</svg>
