<svg width="20" height="20" viewBox="0 0 20 20" fill="none" xmlns="http://www.w3.org/2000/svg">
<path d="M16.4697 2.46967C16.7626 2.17678 17.2373 2.17678 17.5302 2.46967C17.8231 2.76256 17.8231 3.23732 17.5302 3.53022L11.0605 9.99994L17.5302 16.4697C17.8231 16.7626 17.8231 17.2373 17.5302 17.5302C17.2373 17.8231 16.7626 17.8231 16.4697 17.5302L9.99994 11.0605L3.53022 17.5302C3.23732 17.8231 2.76256 17.8231 2.46967 17.5302C2.17678 17.2373 2.17678 16.7626 2.46967 16.4697L8.9394 9.99994L2.46967 3.53022C2.17678 3.23732 2.17678 2.76256 2.46967 2.46967C2.76256 2.17678 3.23732 2.17678 3.53022 2.46967L9.99994 8.9394L16.4697 2.46967Z" fill="#495057"/>
</svg>
